<svg width="23" height="23" viewBox="0 0 23 23" fill="none" xmlns="http://www.w3.org/2000/svg">
<path d="M21.7762 16.1955C21.7365 16.1625 17.2448 12.948 16.026 13.1588C15.4403 13.2622 15.105 13.6613 14.4338 14.4615C14.3258 14.5905 14.0655 14.8988 13.8645 15.1185C13.4402 14.9803 13.0264 14.8119 12.6262 14.6145C10.5604 13.6088 8.89124 11.9396 7.8855 9.87375C7.68815 9.47356 7.51972 9.05975 7.3815 8.6355C7.602 8.43375 7.911 8.1735 8.043 8.0625C8.83875 7.395 9.23775 7.05975 9.34125 6.47325C9.5535 5.259 6.3375 0.7635 6.3045 0.723C6.15804 0.515292 5.9673 0.342693 5.74603 0.217663C5.52476 0.0926319 5.27849 0.0182888 5.025 0C3.7215 0 0 4.827 0 5.64075C0 5.688 0.0682501 10.491 5.991 16.5158C12.009 22.4317 16.812 22.5 16.8592 22.5C17.673 22.5 22.5 18.7785 22.5 17.475C22.4817 17.2214 22.4073 16.9751 22.2821 16.7538C22.157 16.5325 21.9842 16.3418 21.7762 16.1955ZM16.7767 20.9955C16.1213 20.9415 12.0907 20.4097 7.0515 15.459C2.07525 10.3927 1.557 6.351 1.50525 5.72475C2.48833 4.18173 3.67559 2.77877 5.03475 1.554C5.06475 1.584 5.1045 1.629 5.1555 1.6875C6.19787 3.11042 7.09581 4.6337 7.836 6.23475C7.59529 6.4769 7.34088 6.70503 7.074 6.918C6.66014 7.23334 6.28011 7.59075 5.94 7.9845L5.75775 8.2395L5.81175 8.54775C5.97047 9.2353 6.21356 9.90059 6.5355 10.5285C7.68892 12.897 9.60282 14.8107 11.9715 15.9637C12.5993 16.2861 13.2646 16.5295 13.9523 16.6882L14.2605 16.7423L14.5155 16.56C14.9107 16.2184 15.2696 15.8369 15.5865 15.4215C15.8212 15.141 16.1355 14.7668 16.254 14.661C17.8596 15.4005 19.3868 16.2995 20.8125 17.3445C20.8748 17.397 20.9183 17.4375 20.9475 17.4637C19.7229 18.8233 18.3199 20.0109 16.7767 20.994V20.9955Z" fill="#2E5C89"/>
</svg>
