<svg width="22" height="28" viewBox="0 0 22 28" fill="none" xmlns="http://www.w3.org/2000/svg">
<path d="M6.38941 1.58203L6.99098 0.980469C7.26441 0.734375 7.67457 0.734375 7.92066 0.980469L13.2527 6.28516C13.4988 6.55859 13.4988 6.96875 13.2527 7.21484L7.92066 12.5469C7.67457 12.793 7.26441 12.793 6.99098 12.5469L6.38941 11.9453C6.14332 11.6719 6.14332 11.2617 6.38941 10.9883L9.69801 7.84375H1.85035C1.46754 7.84375 1.1941 7.57031 1.1941 7.1875V6.3125C1.1941 5.95703 1.46754 5.65625 1.85035 5.65625H9.69801L6.38941 2.53906C6.14332 2.26562 6.11598 1.85547 6.38941 1.58203ZM16.7061 2.004L16.4261 5.616H14.5501L14.2701 2.004H16.7061ZM19.9541 2.004L19.6741 5.616H17.7981L17.5181 2.004H19.9541Z" fill="white"/>
<path d="M6.14754 16.8188L3.14174 25.113H1.23204L4.23784 16.8188H6.14754ZM13.2214 16.9318L12.9954 19.8472H11.4812L11.2552 16.9318H13.2214ZM15.843 16.9318L15.617 19.8472H14.1028L13.8768 16.9318H15.843Z" fill="white"/>
</svg>
